<svg width="683" height="684" viewBox="0 0 683 684" fill="none" xmlns="http://www.w3.org/2000/svg">
<path d="M542.638 3.92682C529.608 8.38801 519.836 14.7366 505.948 27.6054C488.289 43.9059 436.854 98.6413 437.54 100.186C437.883 101.043 470.972 135.017 511.092 175.683L584.301 249.635L626.134 208.112C660.081 174.31 669.168 164.53 673.283 156.122C687.342 128.154 685.456 95.2096 668.654 69.8151C659.739 56.4316 626.82 23.4874 613.447 14.565C607.789 10.7902 598.188 6.15741 592.016 4.26999C577.786 -0.191203 554.811 -0.362787 542.638 3.92682Z" fill="#64AC72"/>
<path d="M225.285 306.601C116.414 415.729 51.9493 481.617 49.0346 486.593C41.1479 500.32 0 641.019 0 654.059C0 670.703 10.6299 682.199 27.089 683.4C34.9757 683.915 43.5482 682.199 72.0089 674.306C134.417 657.319 168.192 646.338 186.709 637.244L204.539 628.493L262.147 572.214C340.499 495.687 548.639 286.869 548.639 284.81C548.639 282.58 400.849 134.674 398.62 134.674C397.592 134.674 319.582 212.058 225.285 306.601Z" fill="#64AC72"/>
</svg>
