<svg width="683" height="682" viewBox="0 0 683 682" fill="none" xmlns="http://www.w3.org/2000/svg">
<path d="M28.4 2.99992C6.66663 11.6666 -4.40004 36.1999 3.19996 58.9999C5.46663 66.0666 11.6 72.3333 142.4 203.267L279.333 340.333L144.533 475.267C70.4 549.533 8.39996 612.467 6.9333 615.133C5.3333 617.8 3.06663 623.667 1.86663 628.2C-3.0667 647.933 6.9333 668.333 26.5333 677.933C31.3333 680.333 34.9333 681 43.3333 681C63.8666 681 51.0666 692.333 204.267 539.133L341.333 402.333L478.4 539.133C631.6 692.333 618.8 681 639.333 681C648.267 681 651.2 680.467 657.6 677.267C670.533 670.867 680 657.267 681.867 642.333C682.933 634.6 680.133 622.467 675.733 615.133C674.267 612.467 612.267 549.533 538.133 475.267L403.333 340.333L540.133 203.267C671.067 72.3333 677.2 66.0666 679.467 58.9999C687.2 35.9333 675.733 11.2666 653.6 2.99992C643.067 -1.00008 628.933 -0.200084 618.667 4.86658C612.667 7.93325 587.733 32.1999 476.4 143.4L341.333 278.333L206.4 143.4C95.0666 32.3333 70 7.93325 64 4.86658C54 -0.200084 38.5333 -1.00008 28.4 2.99992Z" fill="#FF0000"/>
</svg>
