<svg width="683" height="683" viewBox="0 0 683 683" fill="none" xmlns="http://www.w3.org/2000/svg">
<path d="M328.667 0.933306C242.667 4.13331 161.733 39.4666 100.533 100.533C45.4667 155.733 11.7333 225.733 2.66666 304C0.666656 320.267 0.666656 362.4 2.66666 378.667C11.7333 456.933 45.4667 526.933 100.533 582.133C148.667 630.267 208.667 662.4 274.267 675.2C299.467 680.133 313.867 681.467 341.333 681.467C400.933 681.467 451.6 668.8 503.333 640.8C592.533 592.667 655.867 506.933 675.2 408.4C680.133 383.2 681.467 368.8 681.467 341.333C681.467 281.733 668.8 231.067 640.8 179.333C592.8 90.5333 507.6 27.3333 409.067 7.46664C384.667 2.66664 352.933 -2.74032e-05 328.667 0.933306ZM377.733 66C438.267 73.8666 493.467 101.333 537.333 145.333C581.333 189.2 608.8 244.4 616.667 304.933C619.2 324.4 619.2 358.267 616.667 377.733C608.8 438.267 581.333 493.467 537.333 537.333C493.467 581.333 438.267 608.8 377.733 616.667C358.267 619.2 324.4 619.2 304.933 616.667C244.4 608.8 189.2 581.333 145.333 537.333C101.333 493.467 73.8667 438.267 66 377.733C63.4667 358.267 63.4667 324.4 66 304.933C72.2667 257.067 91.2 211.733 121.6 171.6C132.267 157.6 157.6 132.267 171.6 121.6C211.2 91.6 256.8 72.4 303.467 66.1333C321.733 63.6 359.067 63.6 377.733 66Z" fill="#E94C4C"/>
<path d="M327.2 151.867C312.8 155.6 302.4 165.067 300 176.533C299.067 181.2 298.667 215.333 298.933 281.467L299.333 379.333L302.4 385.333C308.4 397.467 322.533 404.267 341.333 404.267C356.533 404.267 366.4 400.667 374.933 392C379.733 386.933 381.467 384.133 382.667 378.533C383.733 373.333 384 344.133 383.733 273.333L383.333 175.333L379.867 169.333C375.333 161.733 373.067 159.733 364 155.2C357.867 152.133 354.8 151.467 344 151.2C337.067 150.933 329.467 151.2 327.2 151.867Z" fill="#E94C4C"/>
<path d="M334.533 449.467C321.467 451.467 310.267 459.867 304 472.267C300.533 479.2 300 481.867 300 490.667C300 499.467 300.533 502.133 304 509.067C308.4 517.733 314.133 523.6 323.067 528.267C327.733 530.8 330.8 531.333 341.333 531.333C351.867 531.333 354.933 530.8 359.6 528.267C368.533 523.6 374.267 517.733 378.667 509.067C382.133 502.133 382.667 499.467 382.667 490.667C382.667 481.867 382.133 479.2 378.667 472.267C370.267 455.6 352.933 446.533 334.533 449.467Z" fill="#E94C4C"/>
</svg>
