<svg width="683" height="683" viewBox="0 0 683 683" fill="none" xmlns="http://www.w3.org/2000/svg">
<path d="M284.667 24.4001C281.2 26.2668 278.267 29.3335 276.4 33.3335C273.6 38.6668 273.333 41.2001 273.333 58.6668V78.0001L262.667 81.0668C247.867 85.2001 226.8 93.6001 213.467 100.8L202.4 106.8L187.467 92.2668C175.467 80.2668 171.733 77.3335 167.467 76.6668C156.133 74.5335 154.267 75.8668 114.533 115.733C82.6667 147.733 77.6 153.333 76.8 157.6C74.9334 168.133 76.6667 171.6 92.1334 187.333L106.533 202L97.3334 220.533C92.2667 230.667 85.6 246.8 82.5334 256.133L76.9334 273.333H58.1334C41.2 273.333 38.6667 273.6 33.3334 276.267C29.3334 278.267 26.2667 281.2 24.4 284.667C21.4667 289.867 21.3334 290.667 21.3334 341.333C21.3334 392 21.4667 392.8 24.4 398C26.2667 401.467 29.3334 404.4 33.3334 406.267C38.6667 409.067 41.2 409.333 58.6667 409.333H78L81.0667 420C85.0667 434.533 93.6 455.6 100.8 469.2L106.8 480.4L92.1334 495.2C80.2667 507.2 77.3334 510.933 76.6667 515.2C74.5334 526.4 76 528.4 115.067 567.6C146.533 598.933 152.133 604 156.933 605.333C167.2 608 172.133 605.6 188 590L202 576.133L220.533 585.333C230.667 590.4 246.8 597.067 256.133 600.133L273.333 605.733V624.533C273.333 641.467 273.6 644 276.4 649.333C278.267 653.333 281.2 656.4 284.667 658.267C289.867 661.2 290.667 661.333 341.333 661.333C392 661.333 392.8 661.2 397.867 658.267C407.2 653.067 408.667 648.933 409.067 625.2L409.6 604.533L418.4 602.133C430.8 598.933 455.733 588.933 469.2 581.867L480.4 576L492.267 588C498.8 594.667 506.267 601.6 508.933 603.467C514.4 607.2 521.733 607.6 528.4 604.8C530.8 603.733 548.667 586.8 568.267 567.2C607.333 527.733 608.4 526.133 605.333 514.933C604.133 510.4 600.8 506 590 494.933L576.267 480.533L585.333 462.133C590.4 452 597.067 435.867 600.133 426.533L605.733 409.333H624.533C641.467 409.333 644 409.067 649.333 406.4C653.333 404.4 656.4 401.467 658.267 398C661.2 392.8 661.333 392 661.333 341.333C661.333 290.667 661.2 289.867 658.267 284.667C656.4 281.2 653.333 278.267 649.333 276.267C644 273.6 641.467 273.333 624 273.333H604.667L601.6 262.667C597.6 248.133 589.067 227.067 582 213.733L576.267 202.8L588 191.067C594.4 184.667 601.2 176.933 603.2 174.133C607.2 168.267 607.733 161.067 604.8 154.267C603.733 151.867 586.667 133.867 566.533 113.867C535.067 82.6668 529.333 77.6001 524.933 76.8001C514.533 74.9335 511.067 76.6668 495.333 92.1335L480.667 106.533L462.533 97.4668C452.533 92.4001 436.533 85.8668 426.933 82.6668L409.6 77.0668L409.067 56.8001C408.667 33.7335 407.2 29.6001 397.867 24.4001C392.8 21.4668 392 21.3335 341.333 21.3335C290.667 21.3335 289.867 21.4668 284.667 24.4001ZM366.533 172.8C407.467 178.8 445.2 200 472.667 232.667C520.267 289.2 524.8 374 483.6 435.333C476.133 446.4 473.333 449.733 460.933 462.4C424.267 499.733 369.733 517.733 317.333 510.133C201.867 493.2 136.933 368.8 189.067 264.667C201.6 239.6 223.067 215.333 247.333 199.067C268.267 185.067 297.733 174.267 322.667 171.6C334.4 170.4 353.6 170.8 366.533 172.8Z" fill="#338643"/>
<path d="M319.067 215.334C292.267 220.134 268 233.2 249.2 253.067C201.333 303.067 201.6 380.534 249.867 430.4C272.4 453.867 302.267 467.2 335.333 468.934C396 472 449.067 432.534 465.6 372.134C469.733 357.467 469.733 325.2 465.6 310.534C451.867 260.267 412.667 224 363.067 215.334C349.467 212.934 332.133 212.934 319.067 215.334Z" fill="#ABABAB"/>
<rect x="93.5" y="93.5" width="495" height="495" rx="247.5" fill="#2F2E2E" stroke="#338643" stroke-width="5"/>
<rect x="465" y="224" width="12" height="36" fill="#F6F6F6"/>
<rect x="454" y="223" width="12" height="36" fill="#F6F6F6"/>
<rect x="442" y="229" width="46" height="36" fill="#F6F6F6"/>
<rect x="442" y="330" width="46" height="36" fill="#F6F6F6"/>
<rect x="501" y="421" width="90" height="12" rx="6" fill="#F6F6F6"/>
<path d="M408.571 173.622C407.165 175.184 407.086 178.231 406.852 279.088L406.696 382.913L394.04 382.757L381.384 382.522L358.26 303.931C345.526 260.729 334.198 223.386 333.026 220.964C328.807 212.371 318.573 204.48 309.042 202.449C305.917 201.824 287.793 201.668 242.638 201.824L180.53 202.058L176.858 204.246C172.718 206.668 169.046 211.433 167.718 216.121C167.171 218.23 166.859 231.901 166.859 257.213C166.859 293.853 166.937 295.259 168.421 297.134C170.374 299.712 172.249 300.181 175.374 298.853C176.702 298.306 177.874 297.759 177.952 297.603C178.03 297.446 178.343 279.478 178.577 257.682L178.968 217.917L181.546 215.652L184.046 213.386H244.513C312.948 213.386 309.902 213.152 316.933 219.48C319.12 221.433 321.542 224.323 322.401 226.042C323.261 227.761 334.51 264.869 347.322 308.54L370.681 387.913L367.947 391.272C366.463 393.147 364.9 394.631 364.666 394.631C364.353 394.631 353.182 357.757 339.979 312.602C325.682 264.166 315.136 229.714 314.198 228.308C312.089 225.339 308.261 222.761 304.589 221.902C300.058 220.886 194.202 220.964 191.155 222.058C189.827 222.527 188.342 223.542 187.952 224.323C187.483 225.261 187.171 246.432 187.171 280.884V336.039H182.874H178.577V327.602C178.577 320.18 178.421 318.93 177.015 317.446C174.671 314.946 170.609 315.102 168.499 317.758C167.093 319.555 166.859 320.961 166.859 327.914V336.039H163.109C154.906 336.039 147.172 340.883 143.422 348.226L141.469 352.054L141.234 406.74L141 461.504L142.875 464.942C145.297 469.629 149.437 471.973 155.218 471.973H159.593L160.999 475.723C164.749 485.957 173.655 496.816 182.718 502.284C190.452 506.972 197.405 508.925 207.326 509.316C213.967 509.55 217.404 509.316 220.998 508.378C238.888 503.613 250.763 492.597 258.184 474.082L259.044 471.973H305.058H351.15L352.01 476.426C352.479 478.926 354.353 483.847 356.072 487.363C360.916 497.285 369.431 504.472 380.525 507.987C386.149 509.706 396.618 509.941 402.399 508.378C417.086 504.472 428.883 491.972 432.086 477.051C433.492 470.176 433.492 467.52 432.086 460.645C430.523 453.458 427.242 446.817 422.398 441.349C419.742 438.458 418.414 436.271 418.414 434.943V432.911H478.1H537.864L539.426 430.88C541.458 428.302 541.536 425.802 539.583 423.459C538.255 421.74 537.317 421.584 530.599 421.349L523.099 421.037V343.929V266.744L521.302 265.104C519.036 262.994 516.068 262.916 513.646 264.869L511.771 266.354L511.537 292.603L511.302 318.852H464.897H418.414V273.931V229.011H430.523H442.632V244.167V259.322L445.054 261.744L447.476 264.166H464.975H482.475L484.975 261.901L487.553 259.635L487.787 244.323L488.1 229.011H499.74H511.38V235.964C511.38 242.135 511.615 243.229 513.177 244.948C515.677 247.76 518.958 247.995 521.536 245.417C522.943 244.01 523.099 242.839 523.099 234.089C523.099 226.823 522.786 223.62 521.927 221.98C519.427 217.136 520.911 217.292 467.241 217.292H418.414V196.199C418.414 176.122 418.336 175.028 416.852 173.544C414.742 171.434 410.524 171.512 408.571 173.622ZM476.225 240.729V252.448H465.288H454.351V240.729V229.011H465.288H476.225V240.729ZM303.495 234.245C304.745 235.339 309.98 252.213 325.761 305.962C337.088 344.633 346.307 376.35 346.151 376.507C345.994 376.663 344.822 375.179 343.416 373.226C340.838 369.398 336.229 366.507 332.87 366.507C331.776 366.507 329.51 367.21 327.792 368.069C326.073 368.929 324.589 369.632 324.354 369.632C323.886 369.632 316.62 357.054 317.011 356.82C317.167 356.742 318.651 355.804 320.37 354.789C325.526 351.82 327.01 350.101 327.01 347.211C327.01 344.008 324.667 341.508 321.698 341.508C319.276 341.508 294.043 356.664 291.699 359.554C288.965 362.835 290.683 367.523 294.98 368.46C297.324 369.007 298.808 368.382 304.589 364.632C306.62 363.304 306.62 363.304 308.495 366.273C309.511 367.913 311.152 370.726 312.167 372.601L314.042 375.882L311.152 378.304C307.714 381.194 305.917 384.319 305.917 387.6C305.917 388.928 307.714 393.459 309.823 397.756C312.011 402.053 313.73 405.881 313.73 406.35C313.73 407.6 289.043 407.287 285.371 406.037C278.34 403.537 276.856 400.334 276.153 386.428C275.762 378.772 275.137 373.929 273.965 370.413C269.278 355.648 256.856 343.226 241.857 338.227C237.325 336.742 234.669 336.508 217.873 336.195L198.889 335.883V284.4V232.917H250.372C298.261 232.917 301.933 232.995 303.495 234.245ZM442.632 346.351C442.71 367.366 441.773 366.507 464.897 366.507C488.256 366.507 487.944 366.819 487.944 345.023V331.352H499.662H511.38V376.272V421.193H464.897H418.414V376.272V331.352H430.523H442.632V346.351ZM476.225 343.07V354.789H465.288H454.351V343.07V331.352H465.288H476.225V343.07ZM235.841 348.929C248.028 352.132 257.716 360.804 262.247 372.679C263.575 376.038 264.043 379.71 264.512 388.538C265.059 398.225 265.372 400.569 267.012 404.162C269.434 409.475 273.809 413.771 279.356 416.427L283.652 418.459H319.589H355.525L359.275 416.584C363.181 414.631 366.15 411.818 374.822 401.662C377.556 398.459 380.681 395.647 381.696 395.334C382.79 395.022 388.806 394.787 395.212 394.709L406.696 394.631V412.521V430.411L402.633 429.318C397.399 427.99 387.165 427.912 382.087 429.318C368.884 432.833 357.791 443.067 353.494 455.88L352.088 459.864L306.386 460.098L260.606 460.254V456.973C260.606 452.051 258.653 443.692 256.231 438.146C250.919 426.193 242.872 417.912 230.685 412.131C216.389 405.334 200.998 405.568 186.389 412.678C180.999 415.334 178.499 417.209 173.108 422.677C163.499 432.365 158.812 442.755 158.109 455.801C157.875 460.333 157.875 460.333 155.531 460.098L153.187 459.864L152.953 408.068C152.797 350.726 152.64 352.679 157.718 349.398C160.14 347.836 161.468 347.758 195.764 347.758C224.826 347.758 232.169 347.992 235.841 348.929ZM343.104 392.366C350.916 402.834 352.791 405.881 351.932 406.428C351.307 406.818 345.682 407.131 339.354 407.131H327.792L323.026 397.678C319.12 389.866 318.495 387.991 319.354 387.21C320.604 385.96 331.854 379.007 332.557 379.007C332.87 379.007 337.557 385.022 343.104 392.366ZM217.014 419.709C230.841 422.599 242.95 433.536 247.013 446.895C254.591 472.129 235.763 497.753 209.514 497.753C198.577 497.753 190.374 494.472 182.249 486.816C173.89 479.082 169.984 469.942 169.984 458.223C169.984 433.693 193.108 414.709 217.014 419.709ZM400.915 441.271C421.695 448.223 427.945 474.238 412.555 489.394C406.852 494.941 401.618 497.206 393.493 497.597C385.446 497.988 379.978 496.269 373.962 491.504C367.634 486.504 362.947 476.895 362.947 468.848C362.947 457.129 372.165 444.552 383.259 441.114C388.103 439.63 396.305 439.708 400.915 441.271Z" fill="#F6F6F6"/>
<rect x="318" y="377" width="12" height="36" fill="#F6F6F6"/>
<rect x="330" y="377" width="12" height="36" fill="#F6F6F6"/>
<rect x="179" y="202" width="143" height="12" rx="6" transform="rotate(90 179 202)" fill="#F6F6F6"/>
<rect x="205" y="213" width="37" height="11" rx="5.5" transform="rotate(180 205 213)" fill="#F6F6F6"/>
<rect x="341" y="380" width="12" height="36" fill="#F6F6F6"/>
<rect x="453" y="323" width="12" height="36" fill="#F6F6F6"/>
<rect x="442" y="323" width="46" height="44" fill="#F6F6F6"/>
<rect x="511" y="227" width="12" height="196" fill="#F6F6F6"/>
</svg>
