<svg width="500" height="500" viewBox="0 0 500 500" fill="none" xmlns="http://www.w3.org/2000/svg">
<path d="M166.008 500C159.194 500 152.659 497.366 147.841 492.678C143.023 487.989 140.316 481.63 140.316 475C140.316 468.37 143.023 462.011 147.841 457.322C152.659 452.634 159.194 450 166.008 450H380.105C398.276 450 415.702 442.976 428.55 430.474C441.398 417.971 448.617 401.014 448.617 383.333V116.667C448.617 98.9856 441.398 82.0286 428.55 69.5262C415.702 57.0238 398.276 50 380.105 50H166.008C159.194 50 152.659 47.3661 147.841 42.6777C143.023 37.9893 140.316 31.6304 140.316 25C140.316 18.3696 143.023 12.0107 147.841 7.32233C152.659 2.63392 159.194 0 166.008 0H380.105C411.903 0 442.399 12.2916 464.884 34.1709C487.368 56.0501 500 85.7247 500 116.667V383.333C500 414.275 487.368 443.95 464.884 465.829C442.399 487.708 411.903 500 380.105 500H166.008ZM230.917 123.3C233.395 121.071 236.301 119.34 239.467 118.204C242.633 117.068 245.999 116.551 249.371 116.681C252.742 116.811 256.055 117.586 259.119 118.962C262.183 120.338 264.938 122.288 267.228 124.7L369.995 233.033C374.381 237.652 376.817 243.711 376.817 250C376.817 256.289 374.381 262.348 369.995 266.967L267.228 375.3C264.936 377.71 262.179 379.657 259.113 381.029C256.048 382.402 252.735 383.174 249.363 383.301C245.992 383.428 242.627 382.907 239.462 381.769C236.297 380.631 233.393 378.897 230.917 376.667C228.441 374.436 226.44 371.753 225.029 368.771C223.618 365.788 222.825 362.564 222.695 359.283C222.431 352.657 224.884 346.2 229.513 341.333L292.474 274.967H25.6917C18.8778 274.967 12.3431 272.333 7.52493 267.644C2.7068 262.956 0 256.597 0 249.967C0 243.336 2.7068 236.977 7.52493 232.289C12.3431 227.601 18.8778 224.967 25.6917 224.967H292.44L229.478 158.633C227.188 156.222 225.408 153.395 224.241 150.313C223.074 147.232 222.542 143.958 222.676 140.677C222.809 137.396 223.606 134.172 225.02 131.191C226.434 128.209 228.438 125.528 230.917 123.3Z" fill="#F9F9F9"/>
</svg>
